<?xml version="1.0" encoding="utf-8"?>
<!-- Generator: Adobe Illustrator 15.1.0, SVG Export Plug-In . SVG Version: 6.00 Build 0)  -->
<!DOCTYPE svg PUBLIC "-//W3C//DTD SVG 1.0//EN" "http://www.w3.org/TR/2001/REC-SVG-20010904/DTD/svg10.dtd">
<svg version="1.0" id="Layer_1" xmlns="http://www.w3.org/2000/svg" xmlns:xlink="http://www.w3.org/1999/xlink" x="0px" y="0px"
	 width="375px" height="247.5px" viewBox="0 0 375 247.5" enable-background="new 0 0 375 247.5" xml:space="preserve">
<g>
	<defs>
		<polygon id="SVGID_1_" points="304.478,-142.725 1.423,-142.725 0.439,-361.42 303.81,-361.42 		"/>
	</defs>
	<clipPath id="SVGID_2_">
		<use xlink:href="#SVGID_1_"  overflow="visible"/>
	</clipPath>
	
		<path clip-path="url(#SVGID_2_)" fill-rule="evenodd" clip-rule="evenodd" fill="#E3E3E3" stroke="#E3E3E3" stroke-width="0.9906" d="
		M105.928-363.997c1.945-7.346,3.89-15.121,4.537-22.902c0.436-5.399,0-10.585-1.08-15.984c-1.079-5.618-4.752-9.508-6.913-14.907
		c-2.592-7.347-4.536-15.772-3.24-23.334c0.647-3.673,2.159-7.345,3.24-10.802c1.729-4.969,6.05-9.938,9.722-13.827
		c4.537-4.537,11.452-7.777,17.5-9.938c6.05-2.377,12.963-2.594,19.444-2.377c8.425,0.217,17.283,3.24,24.628,7.345
		c3.89,2.162,7.777,4.538,11.019,7.563c2.809,2.376,5.185,5.618,7.129,9.722l0.274,0.838c2.929,6.883,5.373,14.603,5.993,16.068
		c0.76,1.813-0.46,5.416-0.759,6.533c-0.431,1.622,1.111,4.968,2.268,6.592c1.159,1.622,6.696,11.045,8.319,13.825
		c1.623,2.782-1.156,4.013-2.161,4.215c-0.809,0.161-1.999-0.542-1.838-1.112c0.331-1.186-3.55-0.553-4.604,0.07
		c-1.195,0.709-1.588,4.172-0.633,6.496c0.47,1.147,2.072,3.76,0.703,5.671c-0.317,0.44-2.237,0.573-2.917,0.81
		c-0.362,0.128,0.326,1.25-0.162,1.296c1.998-0.268,5.131,1.999,3.293,4.7c-1.045,1.538-2.479,3.189-2.268,5.186
		c0.123,1.17,0.997,3.105,0.759,4.536c-0.233,1.387-0.218,2.483-1.404,3.995c-1.123,1.427-2.513,3.174-4,4.214
		c-1.485,1.042-3.529,1.189-5.833,1.082c-3.37-0.157-6.129-0.384-8.422-0.332l-1.949,0.222c-4.32,0.433-9.504-1.079-11.234,4.321
		c-0.646,2.162,0.36,4.563-0.646,7.131c-1.008,2.565-1.603,4.052,2.074,5.917c3.125,1.585,20.021,5.13,28.002,10.237l3.405,1.817
		c2.569,1.254,5.156,2.428,7.795,3.496c5.099,2.063,8.668,3.866,13.257,5.414c6.627,2.32,12.818,4.358,18.35,8.507
		c14.781,11.083,18.862,39.181,17.842,54.904c-0.533,8.235-1.784,16.241-2.549,24.49c-0.252,3.608,0.257,7.216,0.511,10.827
		c0.254,5.67,0.254,11.6,0.254,17.27c0,7.476-0.508,14.174,2.805,20.877c2.549,5.158,11.727,25.006,10.956,45.113
		c-0.45,11.859,5.354,62.633,9.178,74.495c1.53,4.896,3.062,8.762,7.645,11.082c5.103,2.575,12.749,12.375,12.749,12.375
		c1.271,1.546,2.035,3.349,3.31,4.894c1.276,2.322,3.574,3.354,5.102,5.157c1.781,2.064,2.549,5.159,3.826,7.218
		c1.527,2.578,7.734,7.994,6.115,9.024c-8.22,5.22-15.298-7.991-19.883-12.632l-0.767,1.549c-0.508,1.546-1.018,2.252-1.527,3.539
		c-0.511,1.291-0.764,2.645-0.511,4.189c0.764,4.387,1.465,7.737,2.998,11.859c1.526,4.896,3.185,9.214,4.97,14.113
		c1.016,2.576,4.588,8.701,0.699,10.889c-3.553,2.006-5.669-2.705-6.436-4.51c-1.277-3.094-2.355-5.606-3.632-8.701
		c-1.274-3.35-2.99-6.479-4.716-9.729c-1.401-2.642-3.565-1.29-3.565-1.29c-1.024,4.125,0.764,9.021,1.527,13.148
		c0.764,4.64,2.291,9.023,2.552,13.658c0,2.582,0.187,4.9-3.315,5.672c-3.747,0.828-4.849-5.41-5.61-8.503
		c-1.274-5.157-2.295-10.57-3.311-15.979c-0.511-2.839-0.511-5.93-2.044-8.252c-1.396-0.131-1.018,2.834-1.271,3.092
		c-0.257,5.16,0,10.313,0,15.466c0,2.319,1.847,10.558-2.803,11.666c-6.503,1.545-5.099-12.18-5.352-14.497
		c-0.765-4.384-0.765-8.511-1.274-12.635c-0.254-1.803-0.638-6.122-1.788-6.186c-1.144-0.064-2.805,6.186-3.056,8.25
		c-0.513,2.06-1.533,3.868-1.787,5.926c-0.256,2.322-1.274,8.701-4.524,7.929c-3.968-0.945-2.355-6.38-2.102-8.958
		c1.018-7.475,2.038-16.242,1.018-23.973c-0.764-6.96-2.295-14.758-0.254-21.977c0.767-3.091,1.723-5.539,1.723-8.893
		c0-3.093-0.702-5.733-1.723-8.572c0,0-17.076-49.231-20.391-59.541c-2.801-9.279-5.099-18.561-6.883-28.357
		c-1.528-7.475-1.018-14.689-1.018-22.425c0-3.35-0.257-7.216-1.021-10.31c-0.765-3.094-2.295-6.187-2.549-9.281l-0.254,7.734
		c-1.529,9.791-4.395,18.815-5.352,29.451c-0.761,8.475,0.51,16.688,0.51,25.193c0,16.5,4.202,31.516,4.459,48.268l1.341,7.542
		c1.337,8.315,2.038,16.108,2.481,22.619c0.768,10.053,1.147,19.526,2.168,29.32c0.764,9.023,0.735,16.918,0.895,25.972
		c0.573,33.444-6.248,69.661-9.052,83.325c-1.274,5.67-2.549,11.855-4.587,17.526c-1.021,3.353-2.548,6.445-3.314,9.795
		c-1.021,4.125-0.764,8.508-1.273,12.889c-0.764,4.127-2.037,7.994-2.805,12.115c-2.548,12.633,1.531,25.007,2.678,37.959
		c0.247,2.825,0.573,16.239,0.38,20.297c0,0-1.526,28.034-10.321,48.334c-4.852,11.2-7.581,18.881-10.896,28.421
		c-3.058,8.248-5.798,17.85-6.054,26.872c-0.253,6.443,0.256,12.629-0.764,19.073c-0.51,3.609,0.254,5.411,1.785,8.766l3.311,3.094
		c4.588,3.091,9.688,6.699,13.509,10.827c1.528,1.802,2.803,4.123,0,5.412c-0.767,0.518-1.784,0-2.805,0.257
		c-0.511,0-1.017,0.772-1.528,0.772c-1.019,0.261-1.529,0-2.547,0c-1.274,0-1.532,0.776-3.062,1.03
		c-1.783,0.774-4.077,0.263-5.861-0.254c-0.255-0.256-0.766-0.776-1.018-1.032c-2.806,2.061-7.396,3.348-9.943,0V343.1
		c-2.295,5.152-12.232,5.152-16.565,3.604c-1.531-0.513-2.424-1.223-3.443-1.996c-1.02-0.512-1.401-0.835-2.422-1.607
		c-1.527-1.292-2.291-4.128-2.039-6.193c0.256-1.802,1.277-3.347,1.277-5.15c0-2.061,0-4.383-0.256-6.444
		c-0.51-6.7,1.719-11.601,1.719-18.302c0-2.318-0.702-5.673,0.319-7.732c1.021-2.064,2.292-3.611,3.056-5.672
		c1.531-3.609,1.274-7.992,1.274-11.6c0,0-0.764-32.738-1.784-46.915l-1.016-10.827c0-1.029-0.256-2.063-0.256-2.834
		c-1.529-8.508-1.783-16.756-1.018-25.263c0.765-7.734,3.822-14.694,6.116-22.166c2.548-7.222,4.589-15.21,3.571-23.204
		c-1.022-7.473-4.017-16.816-4.525-24.547c0,0,0.064-18.438-0.766-26.489c-0.955-9.278-1.294-18.211-2.868-27.646
		c-2.482-14.886-4.08-29.32-4.587-44.273c-0.256-6.444-0.507-12.888-0.507-19.33c0-4.384,0-26.81-0.764-32.222
		c0-1.033-0.636-3.159-3.058-3.096h-0.411c-2.414-0.063-3.049,2.063-3.049,3.096c-0.76,5.412-0.76,27.838-0.76,32.222
		c0,6.442-0.251,12.886-0.506,19.33c-0.51,14.953-2.1,29.388-4.573,44.273c-1.569,9.436-1.906,18.368-2.86,27.646
		c-0.824,8.052-0.761,26.489-0.761,26.489c-0.508,7.73-3.491,17.074-4.51,24.547c-1.013,7.994,1.019,15.982,3.56,23.204
		c2.287,7.472,5.333,14.432,6.096,22.166c0.761,8.507,0.507,16.755-1.017,25.263c0,0.771-0.255,1.805-0.255,2.834l-1.016,10.827
		c-1.016,14.177-1.778,46.915-1.778,46.915c0,3.607-0.256,7.99,1.27,11.6c0.759,2.061,2.032,3.607,3.048,5.672
		c1.016,2.06,0.317,5.414,0.317,7.732c0,6.701,2.223,11.602,1.715,18.302c-0.252,2.062-0.252,4.384-0.252,6.444
		c0,1.804,1.016,3.349,1.271,5.15c0.251,2.065-0.511,4.901-2.035,6.193c-1.016,0.772-1.396,1.096-2.413,1.607
		c-1.017,0.773-1.905,1.483-3.428,1.996c-4.317,1.549-14.227,1.549-16.51-3.604v0.256c-2.541,3.348-7.114,2.061-9.907,0
		c-0.254,0.256-0.762,0.776-1.016,1.032c-1.779,0.517-4.065,1.028-5.844,0.254c-1.522-0.254-1.776-1.03-3.047-1.03
		c-1.017,0-1.524,0.261-2.541,0c-0.509,0-1.015-0.772-1.523-0.772c-1.016-0.257-2.032,0.261-2.795-0.257
		c-2.792-1.289-1.523-3.61,0-5.412c3.809-4.128,8.891-7.736,13.463-10.827l3.303-3.094c1.524-3.354,2.286-5.156,1.78-8.766
		c-1.019-6.444-0.51-12.63-0.765-19.073c-0.254-9.022-2.984-18.624-6.031-26.872c-3.304-9.54-6.024-17.221-10.858-28.421
		c-8.768-20.3-10.291-48.334-10.291-48.334c-0.193-4.058,0.129-17.472,0.379-20.297c1.144-12.952,5.209-25.326,2.669-37.959
		c-0.763-4.121-2.035-7.988-2.798-12.115c-0.507-4.381-0.25-8.764-1.27-12.889c-0.761-3.35-2.286-6.442-3.302-9.795
		c-2.033-5.671-3.302-11.856-4.572-17.526c-2.793-13.664-9.588-49.881-9.017-83.325c0.155-9.054,0.127-16.948,0.89-25.972
		c1.015-9.794,1.396-19.268,2.158-29.32c0.442-6.511,1.143-14.304,2.477-22.619l1.333-7.542c0.254-16.752,4.445-31.768,4.445-48.268
		c0-8.506,1.266-16.719,0.507-25.193c-0.951-10.636-3.808-19.66-5.333-29.451l-0.253-7.734c-0.255,3.095-1.779,6.188-2.542,9.281
		c-0.761,3.094-1.015,6.96-1.015,10.31c0,7.735,0.509,14.95-1.015,22.425c-1.78,9.797-4.065,19.078-6.86,28.357
		c-3.302,10.31-20.32,59.541-20.32,59.541c-1.016,2.839-1.714,5.479-1.714,8.572c0,3.354,0.953,5.802,1.714,8.893
		c2.032,7.219,0.508,15.017-0.253,21.977c-1.018,7.73,0,16.498,1.015,23.973c0.253,2.578,1.86,8.013-2.096,8.958
		c-3.237,0.772-4.253-5.606-4.508-7.929c-0.253-2.058-1.27-3.866-1.777-5.926c-0.254-2.064-1.906-8.314-3.05-8.25
		c-1.141,0.063-1.524,4.383-1.776,6.186c-0.509,4.124-0.509,8.251-1.271,12.635c-0.253,2.317,1.143,16.042-5.334,14.497
		C9.182,14.168,11.025,5.93,11.025,3.61c0-5.153,0.255-10.306,0-15.466c-0.253-0.258,0.126-3.223-1.27-3.092
		c-1.526,2.322-1.526,5.413-2.033,8.252C6.706-1.286,5.691,4.127,4.421,9.284c-0.762,3.093-1.858,9.331-5.589,8.503
		c-3.493-0.771-3.302-3.09-3.302-5.672C-4.216,7.48-2.692,3.097-1.929-1.543c0.761-4.127,2.54-9.023,1.524-13.148
		c0,0-2.16-1.352-3.557,1.29c-1.72,3.251-3.429,6.38-4.698,9.729c-1.27,3.095-2.351,5.607-3.619,8.701
		c-0.762,1.805-2.871,6.516-6.414,4.51c-3.874-2.188-0.316-8.313,0.698-10.889c1.778-4.899,3.43-9.217,4.954-14.113
		c1.524-4.122,2.222-7.473,2.984-11.859c0.253-1.545,0-2.898-0.509-4.189c-0.508-1.287-1.015-1.993-1.523-3.539l-0.762-1.549
		c-4.573,4.641-11.622,17.852-19.814,12.632c-1.611-1.03,4.572-6.446,6.097-9.024c1.27-2.059,2.031-5.153,3.809-7.218
		c1.525-1.803,3.812-2.835,5.082-5.157c1.269-1.545,2.031-3.348,3.301-4.894c0,0,7.621-9.8,12.7-12.375
		c4.572-2.32,6.097-6.186,7.621-11.082c3.811-11.862,9.594-62.636,9.144-74.495c-0.762-20.107,8.383-39.955,10.923-45.113
		c3.302-6.703,2.794-13.401,2.794-20.877c0-5.67,0-11.6,0.255-17.27c0.253-3.611,0.761-7.219,0.507-10.827
		c-0.762-8.249-2.009-16.255-2.541-24.49c-1.016-15.724,3.048-43.821,17.781-54.904c5.513-4.148,11.683-6.187,18.29-8.507
		c4.57-1.548,7.551-2.931,13.209-5.414C88.184-340.827,103.984-355.354,105.928-363.997z"/>
	<path clip-path="url(#SVGID_2_)" fill="#F9ECE6" stroke="#B1877B" stroke-width="0.9906" d="M109.114-396.319"/>
	
		<path clip-path="url(#SVGID_2_)" fill="#F9ECE6" stroke="#B1877B" stroke-width="0.9906" stroke-linecap="round" stroke-linejoin="round" d="
		M165.081-66.828c-1.887,1.139-6.319,7.26-5.287,13.977c0.377,2.455-0.19,4.723,0.377,5.854c0.568,1.132,0.945,7.557,0.379,9.063
		c-0.566,1.516,0.376,5.856-0.379,7.178c-0.754,1.324-1.135,4.906-2.077,5.287c-0.944,0.378-1.888,2.265-1.888,3.023
		c0,0.756-1.7,2.076-2.645,2.076c-0.944,0-3.21,2.076-4.156,1.7c-0.943-0.375-2.265,0-2.83,0.563
		c-0.569,0.567-4.12,0.287-4.873-0.09c-0.757-0.19-3.173-0.288-3.93,0.09c-0.755,0.381-3.775,0.567-4.341,0
		c-0.568-0.563-1.89-0.938-2.833-0.563c-0.943,0.376-3.21-1.7-4.154-1.7c-0.945,0-2.645-1.32-2.645-2.076
		c0-0.759-0.942-2.646-1.888-3.023c-0.943-0.381-1.322-3.963-2.077-5.287c-0.753-1.321,0.188-5.662-0.379-7.178
		c-0.565-1.507-0.189-7.932,0.379-9.063c0.567-1.132,0-3.399,0.378-5.854c1.032-6.717-3.399-12.838-5.288-13.977"/>
</g>
<g>
	<defs>
		<polygon id="SVGID_3_" points="302.217,230.578 2.763,230.578 1.791,14.481 301.557,14.481 		"/>
	</defs>
	<clipPath id="SVGID_4_">
		<use xlink:href="#SVGID_3_"  overflow="visible"/>
	</clipPath>
	
		<path clip-path="url(#SVGID_4_)" fill-rule="evenodd" clip-rule="evenodd" fill="#E3E3E3" stroke="#E3E3E3" stroke-width="0.9906" d="
		M106.025,11.935c1.923-7.259,3.844-14.941,4.483-22.63c0.43-5.336,0-10.461-1.067-15.795c-1.066-5.553-4.695-9.395-6.83-14.73
		c-2.562-7.26-4.482-15.584-3.202-23.057c0.64-3.629,2.133-7.258,3.202-10.674c1.708-4.91,5.977-9.819,9.606-13.663
		c4.482-4.483,11.315-7.684,17.292-9.818c5.978-2.35,12.809-2.563,19.213-2.35c8.325,0.215,17.078,3.202,24.335,7.259
		c3.843,2.135,7.685,4.482,10.888,7.471c2.775,2.349,5.123,5.552,7.044,9.606l0.271,0.829c2.894,6.801,5.31,14.43,5.922,15.877
		c0.751,1.791-0.454,5.351-0.75,6.457c-0.425,1.602,1.099,4.908,2.24,6.512c1.146,1.604,6.617,10.915,8.222,13.661
		c1.604,2.749-1.143,3.965-2.136,4.164c-0.799,0.159-1.975-0.535-1.816-1.098c0.328-1.172-3.508-0.548-4.55,0.069
		c-1.181,0.699-1.568,4.121-0.625,6.42c0.464,1.133,2.048,3.713,0.694,5.603c-0.313,0.435-2.211,0.567-2.882,0.8
		c-0.358,0.125,0.322,1.234-0.16,1.28c1.974-0.266,5.07,1.976,3.253,4.645c-1.031,1.519-2.448,3.151-2.24,5.124
		c0.122,1.155,0.985,3.067,0.75,4.48c-0.23,1.373-0.216,2.455-1.388,3.949c-1.109,1.41-2.482,3.135-3.953,4.164
		c-1.467,1.029-3.486,1.175-5.763,1.068c-3.33-0.154-6.056-0.378-8.322-0.327l-1.925,0.22c-4.269,0.426-9.391-1.066-11.101,4.269
		c-0.638,2.136,0.355,4.511-0.638,7.046c-0.996,2.535-1.584,4.004,2.049,5.848c3.087,1.565,19.782,5.067,27.669,10.114l3.365,1.798
		c2.538,1.237,5.094,2.398,7.702,3.454c5.037,2.039,8.564,3.82,13.099,5.349c6.548,2.293,12.666,4.307,18.131,8.406
		c14.606,10.951,18.639,38.716,17.631,54.252c-0.527,8.138-1.763,16.049-2.519,24.198c-0.25,3.566,0.254,7.131,0.505,10.699
		c0.251,5.603,0.251,11.462,0.251,17.065c0,7.387-0.502,14.005,2.771,20.628c2.519,5.098,11.588,24.708,10.826,44.576
		c-0.445,11.72,5.289,61.89,9.069,73.61c1.512,4.84,3.024,8.657,7.553,10.95c5.043,2.545,12.598,12.229,12.598,12.229
		c1.256,1.526,2.012,3.308,3.271,4.835c1.262,2.295,3.532,3.314,5.041,5.096c1.76,2.041,2.519,5.098,3.78,7.133
		c1.509,2.547,7.643,7.9,6.043,8.918c-8.122,5.156-15.116-7.896-19.646-12.482l-0.758,1.529c-0.502,1.529-1.006,2.227-1.509,3.497
		c-0.505,1.277-0.755,2.614-0.505,4.142c0.754,4.334,1.447,7.645,2.962,11.718c1.509,4.838,3.146,9.104,4.911,13.944
		c1.004,2.547,4.533,8.599,0.691,10.76c-3.511,1.982-5.603-2.673-6.36-4.456c-1.262-3.056-2.327-5.54-3.588-8.597
		c-1.26-3.311-2.954-6.401-4.66-9.614c-1.384-2.611-3.522-1.275-3.522-1.275c-1.013,4.076,0.754,8.914,1.509,12.991
		c0.754,4.586,2.265,8.918,2.521,13.498c0,2.551,0.185,4.842-3.276,5.604c-3.702,0.818-4.791-5.346-5.543-8.402
		c-1.259-5.096-2.268-10.445-3.271-15.79c-0.505-2.805-0.505-5.859-2.021-8.152c-1.379-0.13-1.005,2.801-1.255,3.055
		c-0.254,5.098,0,10.188,0,15.282c0,2.291,1.825,10.431-2.769,11.527c-6.426,1.525-5.039-12.035-5.289-14.326
		c-0.755-4.331-0.755-8.409-1.259-12.483c-0.251-1.781-0.63-6.05-1.767-6.113c-1.131-0.063-2.771,6.113-3.02,8.152
		c-0.507,2.035-1.515,3.822-1.766,5.857c-0.253,2.292-1.26,8.597-4.471,7.833c-3.921-0.935-2.328-6.305-2.077-8.851
		c1.005-7.387,2.014-16.051,1.005-23.688c-0.754-6.877-2.267-14.582-0.25-21.715c0.757-3.055,1.702-5.475,1.702-8.787
		c0-3.057-0.694-5.667-1.702-8.472c0,0-16.873-48.646-20.147-58.833c-2.769-9.17-5.039-18.339-6.802-28.021
		c-1.51-7.386-1.006-14.515-1.006-22.159c0-3.309-0.254-7.128-1.008-10.187c-0.756-3.057-2.268-6.113-2.519-9.17l-0.251,7.643
		c-1.512,9.675-4.343,18.591-5.288,29.101c-0.752,8.373,0.504,16.489,0.504,24.895c0,16.305,4.151,31.141,4.405,47.694l1.325,7.451
		c1.321,8.217,2.014,15.918,2.451,22.351c0.759,9.933,1.135,19.295,2.144,28.973c0.754,8.915,0.727,16.716,0.883,25.662
		c0.566,33.047-6.173,68.834-8.944,82.335c-1.259,5.604-2.518,11.714-4.531,17.317c-1.009,3.314-2.518,6.369-3.275,9.68
		c-1.008,4.076-0.754,8.408-1.258,12.735c-0.756,4.078-2.014,7.9-2.772,11.973c-2.518,12.481,1.514,24.708,2.646,37.507
		c0.244,2.792,0.566,16.046,0.376,20.055c0,0-1.509,27.701-10.199,47.761c-4.794,11.066-7.491,18.656-10.766,28.083
		c-3.022,8.15-5.729,17.637-5.982,26.553c-0.25,6.367,0.253,12.479-0.754,18.847c-0.504,3.566,0.25,5.347,1.764,8.661l3.272,3.057
		c4.534,3.055,9.572,6.621,13.349,10.699c1.511,1.781,2.77,4.074,0,5.348c-0.757,0.512-1.763,0-2.771,0.254
		c-0.505,0-1.006,0.764-1.512,0.764c-1.006,0.258-1.511,0-2.516,0c-1.26,0-1.515,0.768-3.025,1.018
		c-1.762,0.766-4.028,0.26-5.791-0.25c-0.252-0.254-0.756-0.768-1.006-1.02c-2.772,2.035-7.307,3.306-9.825,0v-0.254
		c-2.267,5.092-12.087,5.092-16.368,3.56c-1.513-0.505-2.396-1.208-3.402-1.972c-1.008-0.506-1.385-0.824-2.394-1.588
		c-1.509-1.277-2.263-4.078-2.015-6.119c0.253-1.781,1.262-3.309,1.262-5.09c0-2.037,0-4.332-0.253-6.369
		c-0.503-6.618,1.699-11.462,1.699-18.083c0-2.29-0.693-5.604,0.315-7.64c1.008-2.041,2.266-3.568,3.02-5.605
		c1.513-3.566,1.259-7.896,1.259-11.463c0,0-0.754-32.348-1.763-46.357l-1.004-10.696c0-1.018-0.253-2.039-0.253-2.801
		c-1.511-8.408-1.762-16.558-1.006-24.964c0.755-7.643,3.776-14.52,6.043-21.901c2.518-7.137,4.535-15.03,3.529-22.929
		c-1.011-7.385-3.97-16.617-4.471-24.255c0,0,0.063-18.22-0.756-26.175c-0.943-9.167-1.28-17.996-2.834-27.317
		c-2.453-14.71-4.031-28.973-4.533-43.748c-0.253-6.368-0.501-12.735-0.501-19.101c0-4.332,0-26.491-0.755-31.838
		c0-1.021-0.628-3.122-3.021-3.059h-0.406c-2.385-0.063-3.013,2.037-3.013,3.059c-0.751,5.347-0.751,27.506-0.751,31.838
		c0,6.365-0.248,12.732-0.5,19.101c-0.503,14.775-2.075,29.038-4.519,43.748c-1.551,9.321-1.884,18.15-2.826,27.317
		c-0.814,7.955-0.752,26.175-0.752,26.175c-0.501,7.638-3.449,16.87-4.456,24.255c-1.001,7.898,1.006,15.792,3.517,22.929
		c2.26,7.382,5.27,14.259,6.024,21.901c0.752,8.406,0.501,16.556-1.004,24.964c0,0.762-0.252,1.783-0.252,2.801l-1.004,10.696
		c-1.003,14.01-1.757,46.357-1.757,46.357c0,3.566-0.253,7.896,1.255,11.463c0.75,2.037,2.008,3.564,3.012,5.605
		c1.003,2.035,0.313,5.35,0.313,7.64c0,6.621,2.196,11.465,1.695,18.083c-0.25,2.037-0.25,4.332-0.25,6.369
		c0,1.781,1.004,3.309,1.256,5.09c0.248,2.041-0.505,4.842-2.011,6.119c-1.003,0.764-1.38,1.082-2.384,1.588
		c-1.005,0.764-1.882,1.467-3.387,1.972c-4.266,1.532-14.058,1.532-16.314-3.56v0.254c-2.51,3.306-7.029,2.035-9.789,0
		c-0.252,0.252-0.753,0.766-1.003,1.02c-1.758,0.51-4.017,1.016-5.776,0.25c-1.502-0.25-1.754-1.018-3.01-1.018
		c-1.005,0-1.507,0.258-2.511,0c-0.503,0-1.002-0.764-1.505-0.764c-1.004-0.254-2.008,0.258-2.762-0.254
		c-2.76-1.273-1.505-3.566,0-5.348c3.764-4.078,8.784-7.645,13.303-10.699l3.264-3.057c1.505-3.314,2.258-5.095,1.759-8.661
		c-1.007-6.367-0.505-12.479-0.755-18.847c-0.252-8.916-2.949-18.402-5.96-26.553c-3.265-9.427-5.952-17.017-10.729-28.083
		c-8.664-20.06-10.168-47.761-10.168-47.761c-0.191-4.009,0.128-17.263,0.375-20.055c1.13-12.799,5.147-25.025,2.638-37.507
		c-0.754-4.072-2.01-7.895-2.765-11.973c-0.501-4.327-0.248-8.659-1.254-12.735c-0.752-3.311-2.259-6.365-3.263-9.68
		c-2.008-5.604-3.263-11.714-4.518-17.317c-2.759-13.501-9.474-49.288-8.909-82.335c0.153-8.946,0.126-16.747,0.879-25.662
		c1.003-9.678,1.379-19.04,2.133-28.973c0.437-6.433,1.129-14.134,2.447-22.351l1.317-7.451c0.251-16.554,4.392-31.39,4.392-47.694
		c0-8.405,1.251-16.521,0.501-24.895c-0.94-10.51-3.763-19.426-5.27-29.101l-0.25-7.643c-0.252,3.057-1.758,6.113-2.511,9.17
		c-0.752,3.059-1.003,6.878-1.003,10.187c0,7.645,0.502,14.773-1.003,22.159c-1.758,9.682-4.017,18.851-6.778,28.021
		c-3.263,10.188-20.079,58.833-20.079,58.833c-1.003,2.805-1.694,5.415-1.694,8.472c0,3.313,0.941,5.732,1.694,8.787
		c2.008,7.133,0.502,14.838-0.25,21.715c-1.006,7.638,0,16.302,1.003,23.688c0.25,2.546,1.838,7.916-2.072,8.851
		c-3.198,0.764-4.202-5.541-4.454-7.833c-0.25-2.035-1.254-3.822-1.756-5.857c-0.251-2.039-1.883-8.215-3.014-8.152
		c-1.127,0.063-1.506,4.332-1.755,6.113c-0.503,4.074-0.503,8.152-1.256,12.483c-0.25,2.291,1.129,15.852-5.271,14.326
		c-4.581-1.097-2.76-9.236-2.76-11.527c0-5.094,0.252-10.185,0-15.282c-0.25-0.254,0.125-3.185-1.255-3.055
		c-1.507,2.293-1.507,5.348-2.008,8.152c-1.004,5.345-2.008,10.694-3.263,15.79c-0.753,3.057-1.835,9.221-5.522,8.402
		c-3.452-0.762-3.263-3.053-3.263-5.604c0.25-4.58,1.756-8.912,2.51-13.498c0.752-4.077,2.51-8.915,1.506-12.991
		c0,0-2.134-1.336-3.515,1.275c-1.699,3.213-3.388,6.304-4.642,9.614c-1.255,3.057-2.323,5.541-3.576,8.597
		c-0.753,1.783-2.837,6.438-6.338,4.456c-3.828-2.161-0.313-8.213,0.69-10.76c1.757-4.84,3.389-9.106,4.895-13.944
		c1.506-4.073,2.195-7.384,2.949-11.718c0.25-1.527,0-2.864-0.502-4.142c-0.502-1.271-1.003-1.968-1.505-3.497l-0.754-1.529
		c-4.519,4.586-11.483,17.639-19.578,12.482c-1.592-1.018,4.518-6.371,6.024-8.918c1.255-2.035,2.007-5.092,3.764-7.133
		c1.507-1.781,3.766-2.801,5.021-5.096c1.254-1.527,2.007-3.309,3.262-4.835c0,0,7.53-9.684,12.549-12.229
		c4.518-2.293,6.024-6.11,7.53-10.95c3.765-11.721,9.48-61.891,9.036-73.61c-0.752-19.868,8.283-39.479,10.793-44.576
		c3.263-6.623,2.761-13.241,2.761-20.628c0-5.604,0-11.463,0.252-17.065c0.25-3.568,0.752-7.133,0.501-10.699
		c-0.753-8.149-1.985-16.061-2.511-24.198c-1.003-15.536,3.012-43.301,17.57-54.252c5.447-4.1,11.544-6.113,18.072-8.406
		c4.516-1.528,7.461-2.896,13.052-5.349C88.493,34.829,104.105,20.475,106.025,11.935z"/>
	<path clip-path="url(#SVGID_4_)" fill="#F9ECE6" stroke="#B1877B" stroke-width="0.9906" d="M109.175-20.003"/>
	
		<path clip-path="url(#SVGID_4_)" fill="#F9ECE6" stroke="#B1877B" stroke-width="0.9906" stroke-linecap="round" stroke-linejoin="round" d="
		M164.476,305.571c-1.864,1.125-6.244,7.175-5.223,13.812c0.373,2.426-0.188,4.665,0.373,5.784c0.562,1.119,0.934,7.468,0.375,8.956
		c-0.56,1.497,0.372,5.786-0.375,7.092c-0.746,1.309-1.121,4.849-2.052,5.225c-0.933,0.373-1.865,2.237-1.865,2.986
		c0,0.748-1.68,2.054-2.614,2.054c-0.932,0-3.172,2.052-4.106,1.68c-0.933-0.372-2.238,0-2.797,0.557
		c-0.563,0.561-4.071,0.284-4.815-0.09c-0.749-0.187-3.136-0.284-3.883,0.09c-0.747,0.376-3.73,0.561-4.289,0
		c-0.562-0.557-1.868-0.929-2.8-0.557s-3.172-1.68-4.104-1.68c-0.934,0-2.614-1.306-2.614-2.054c0-0.749-0.931-2.613-1.865-2.986
		c-0.932-0.376-1.307-3.916-2.052-5.225c-0.745-1.306,0.186-5.595-0.375-7.092c-0.558-1.488-0.187-7.837,0.375-8.956
		c0.561-1.119,0-3.358,0.374-5.784c1.02-6.637-3.359-12.687-5.226-13.812"/>
</g>
<rect x="-6.477" y="13.943" fill="none" width="297.876" height="261.113"/>
<g>
	<defs>
		<rect id="SVGID_5_" x="70.446" y="14.533" width="166.892" height="215.59"/>
	</defs>
	<clipPath id="SVGID_6_">
		<use xlink:href="#SVGID_5_"  overflow="visible"/>
	</clipPath>
	<g clip-path="url(#SVGID_6_)">
		<path fill="#E5AB97" stroke="#E5AB97" stroke-width="0.7429" d="M149.398,226.575c4.38-6.497,4.808-12.985,3.775-16.918
			c-2.196-8.375-9.225-9.937-12.024-10.382c-4.726-0.756-9.573,0.739-13.414,6.223c-1.934,2.756-2.711,3.816-6.352,6.18
			c-2.719,1.766-6.79,1.609-9.664,0.186c-1.986-0.985-3.229-2.762-3.335-6.365c-0.056-1.775,0.002-0.93-0.087-3.01
			c-0.147-3.43-0.315-7.327-0.03-11.759c0.071-1.119,0.156-1.984,0.262-2.667l-0.251-0.038c2.074,1.108,3.827,0.476,4.305-0.638
			c0,0,0.409,2.436,6.859,6.516c13.077,8.257,26.952,4.445,26.952,4.445c6.699-1.586,9.889-3.018,13.249-5.955
			c4.493-3.926,5.749-8.499,11.154-11.84c2.996-1.623,6.641-4.486,9.317-6.444c4.892-3.582,8.458-7.654,9.666-14.101
			c1.622-8.649,1.458-15.228-5.749-24.198c-5.101-6.353-14.477-12.733-25.035-8.166c-2.222,0.965-3.897,2.983-4.806,4.931
			c-0.479,1.119-1.322,4.562-4.008,4.149l-0.625-0.544c-0.562-0.506-1.005-7.756-1.354-15.517
			c-0.177-3.907-3.762-83.764-2.296-98.33c0.453-3.94,0.238-12.526,3.541-14.935c2.033-1.485,2.904-3.485,2.237-5.277
			c0.101-0.021-0.003-1.288,0.307-2.003c0.22-0.499-0.529-0.74,0.002-1.148c-0.633,0.001-0.538-0.971-0.152-1.272
			c-0.176-0.232-0.41-0.388-0.476-0.674c-0.039-0.156,0.201-0.386,0.196-0.561c-0.003-0.117-0.224-0.15-0.221-0.269
			c0.01-0.44-0.105-1.43,0.265-1.683c-0.457-0.585,0.307-1.554,0.904-1.089c0.198,0.153,0.448,0.607,0.656,0.537
			c0.485-0.163,0.113-0.344,0.048-0.61c-0.072-0.288-0.195-0.668-0.272-0.896c-0.05-0.143-0.246-0.091-0.285-0.29
			c-0.042-0.189,0.14-0.347,0.119-0.489c-0.051-0.386-0.577-1.771,0.42-1.678c-0.018-0.384,0.031-1.061,0.488-1.114
			c-0.16-0.229,0.114-1.115,0.223-1.445c0.03-0.083,0.349-0.551,0.405-0.625c0.133-0.188,0.153-0.398,0.41-0.504
			c-0.109-0.734,0.962-1.478,1.411-1.866c0.299-0.263,0.578-0.474,0.915-0.704c0.193-0.133,0.56-0.442,0.763-0.5
			c0.117-0.416,1.83-1.57,2.126-1.461c0.116-0.822,1.246-0.129,1.622-0.782c0.308,0.287,0.579-0.06,0.92-0.14
			c0.375-0.09,0.734,0.013,1.116-0.023c0.35-0.033,0.603-0.24,1.005-0.185c0.326,0.042,0.561,0.206,0.854,0.185
			c0.307-0.021,0.583-0.267,0.916-0.285c0.312-0.014,0.625,0.204,0.868,0.188c0.313-0.021,0.522-0.232,0.847-0.216
			c0.296,0.017,0.532,0.189,0.828,0.188c0.151,0,0.318-0.167,0.499-0.175c0.473-0.025,0.964,0.09,1.426,0.185
			c0.448,0.092,0.529,0.124,0.987,0.13c0.446,0.005,0.834,0.038,1.133,0.403c0.703-0.244,1.312,0.191,1.916,0.283
			c0.406,0.063,0.628,0.068,0.994,0.203c1.065,0.395,2.186,0.42,3.216,1.116c0.759,0.514,1.381,0.741,2.181,1.093
			c0.404,0.178,0.731,0.442,1.052,0.649c0.389,0.248,0.574,0.417,0.873,0.739c0.218,0.233,0.559,0.509,0.782,0.688
			c0.854,0.677,1.103,0.876,1.365,1.858c0.146,0.553,0.279-0.139,0.216,1.039c-0.06,1.179-0.765,1.462-1.681,2.093
			c-0.916,0.628-1.055,0.632-1.687,1.397c-0.63,0.769-0.843,0.702-1.479,0.984c-0.637,0.281-0.917,0.354-1.621,0.913
			c-0.705,0.561-0.629,0.836-0.694,1.669c-0.016,0.192,0.008,0.403,0.083,0.621l0.016,0.608c0.569,0.271,0.76,0.149,1.608-0.064
			c0.852-0.215,0.917-0.491,1.409-0.913c0.494-0.421,0.435-0.436,1.058-0.58c0.389-0.089,0.727-0.23,0.901-0.442
			c0.315-0.379,0.403-0.435,0.891-1.479c0.488-1.042,0.319-0.723,0.625-1.339c0.106-0.207,0.474-0.627,0.53-0.039
			c0.026,0.285,0.143,0.346,0.215,0.449c0.05,0.07,0.097,0.112,0.139,0.143c-0.003-0.127,0.002-0.286,0.021-0.471
			c0.047-0.471,0.08-0.574,0.452-0.89c0.371-0.313,0.371-0.425,0.595-0.94c0.122-0.278,0.104-0.52,0.309-0.887
			c0.211-0.362,0.616-0.679,0.767,0.22c0.06,0.361,0.072,0.541,0.168,1.417c0.063,0.557,0.119,0.891,0.056,1.275
			c0.146-0.203,0.369-0.445,0.486-0.098c0.078,0.237,0.126,0.483,0.131,1.176c0.006,0.693,0.078,0.969,0.159,2.216
			c0.082,1.247,0.64-0.073,0.559-1.044c-0.08-0.969,0.058-2.009,0.05-2.842c-0.007-0.832,0.349-0.903,0.269-1.666
			c-0.075-0.761-0.213-0.481-0.363-1.104c-0.143-0.626,0.136-0.835,0.907-1.396c0.314-0.226,0.648-0.321,0.988-0.314
			c0.076-0.35,0.2-0.677,0.342-0.985c-0.414,0.019-0.796-0.026-1.075-0.162c-0.935-0.453-1.662-1.053-1.425-2.308
			c0.241-1.258,0.634-2.171,0.106-3.194c-0.531-1.021-1.041-1.353-1.084-0.656c-0.049,0.695,0.099,1.109,0.182,1.796
			c0.05,0.414,0.141,0.729,0.223,1.362c0.074,0.568,0.076,0.638,0.09,1.055c0.015,0.415-0.271,0.357-0.495-0.054
			c-0.059-0.102-0.1-0.162-0.145-0.192c0.122,0.635,0.186,1.282,0.161,2.282c-0.031,1.181-0.058,1.215-0.229,1.603
			c-0.164,0.37-0.345,0.22-0.641-0.049c-0.292-0.268-0.438-0.383-0.521-0.814c-0.136-0.682-0.188-0.824-0.485-1.23
			c-0.298-0.406-0.572-0.676-0.586-1.091c-0.003-0.083-0.01-0.159-0.019-0.23c-0.046,0.115-0.069,0.235-0.06,0.503
			c0.021,0.664-0.09,1.069-0.661,0.403c-0.463-0.54-0.315-0.388-1.505-1.578c-1.298-1.294-4.227-3.393-6.655-4.002
			c-2.431-0.609-8.556-1.511-11.098-1.354c-2.544,0.155-3.688-0.084-5.097,0.172c-1.406,0.256-4.277,1.256-5.306,2.332
			c-1.023,1.074-2.053,2.08-2.932,3.29c-0.878,1.207-1.214,1.845-1.964,2.631c-0.753,0.789-2.096,0.903-2.075-0.552
			c0.022-1.46,1.422-6.081,6.095-8.252c3.208-1.49,3.979-1.729,7.021-1.833c2.196-0.075,11.927-0.516,14.785-0.713
			c3.954-0.276,13.239-2.257,14.446-2.226c0.922,0.02,1.985-0.001,2.022,1.106c0.003,0.092-0.176,0.355-0.171,0.472
			c0.062-0.34,0.337-0.782,0.454-1c0.888-1.614,3.768-1.286,5.028-0.927c-0.039-0.155,0.912-1.495,0.305-3.173
			c-0.414-1.139-4.207-9.01-13.882-14.369c-2.208-1.221-1.802-0.908-2.305-1.1c-0.501-0.189-1.221-0.582-2.416-0.264
			c-4.857,1.293-14.935,2.521-18.567,1.95c-1.481-0.231-2.154,0.267-2.167,0.838c-0.114,4.928-2.712,6.269-3.579,7.339
			c-0.867,1.068-0.042,1.674,0.128,2.229c0.417,1.39-0.007,3.851-0.401,3.921c-0.1,0.423-0.429,0.813-0.894,0.795
			c-0.151,0.518-0.632,1.492-1.304,1.08c-0.12,0.313-0.421,0.535-0.701,0.679c-0.616-0.198-1.22,0.662-2.211,0.105
			c-2.069,0.581-3.351,0.03-4.186,0.196c-0.636,0.124-1.431,0.832-1.538,1.703c-0.114,0.902-0.103,1.627-0.185,2.305
			c-0.161,1.307-0.329,3.467-1.039,5.433c-0.715,1.966-1.374,0.563-2.963,11.431c-4.494,30.709-1.01,123.898-0.918,126.569
			c0.025,0.731,0.105,8.506,2.882,12.53c2.558,3.701,4.471,3.393,4.827,5.848c0.216,1.499,1.193,2.242,1.906,3.546
			c1.176,2.263-2.302,5.006-3.169,6.659c-3.584,5.404-3.636,11.651-4.882,17.72c-0.45,2.908-2.513,4.379-3.511,6.905
			c-1.35,2.768-2.598,4.259-5.316,5.143c-2.11,0.588-3.621,2.059-5.43,3.234c-1.411-2.748-5.933-4.607-8.72-3.068l-0.335-0.166
			c-3.566-4.178-9.238-4.574-12.967-2.637l-0.6,0.378c-3.463,2.417-5.44,5.481-5.929,13.122c-0.318,4.978-0.131,9.338,0.019,12.847
			c0.087,1.995,0.091,1.968,0.183,3.419c0.531,8.262,3.093,12.378,8.718,15.357c5,2.646,14.037,3.287,20.95-1.586
			c3.457-2.436,8.858-8.843,8.858-8.843c0.909-1.403,4.551-1.856,5.792,0.345c1.986,3.53-1.519,6.936-4.684,11.934l-0.708,1.292
			c-3.521,6.83-2.999,11.454-1.706,14.31c1.396,3.079,4.334,4.602,7.639,5.408c9.881,2.402,17.972-12.561,18.989-14.149
			c0.229-0.353,0.448-0.636,0.659-0.892c-0.087,0.483-0.216,1.034-0.437,1.71c-1.449,4.442-2.036,8.015-2.036,10.89
			c0,6.038,2.6,8.989,5.284,10.427c5.413,2.896,12.707-0.051,18.582-7.502c1.858-2.364,1.452-5.778-0.908-7.638
			c-2.359-1.861-5.776-1.455-7.636,0.905c-1.732,2.199-3.329,3.392-4.415,3.977c-0.004-0.107-0.021-0.144-0.021-0.271
			c0-1.344,0.275-3.682,1.492-7.416c0.779-2.383,1.112-4.511,1.112-6.396c0-5.317-2.677-8.628-5.574-10.003
			c-4.272-2.024-9.469-0.694-15.256,6.339c-0.492,0.599-6.655,7.837-7.316,8.341c0.252-0.93,1.216-1.729,2.076-3.29L149.398,226.575
			z"/>
	</g>
	<path clip-path="url(#SVGID_6_)" fill="#FDECE4" stroke="#1D1D1B" stroke-width="0.7429" d="M151.7-4.012L151.7-4.012
		C151.7-4.012,151.699-4.012,151.7-4.012z"/>
	<g clip-path="url(#SVGID_6_)">
		<g>
			<g>
				<path fill="#B1877B" d="M187.161-46.49c-2.129,1.52-4.597,2.297-7.074,3.047c-2.534,0.769-4.966,1.644-7.624,1.855
					c-0.463,0.037-0.476,0.744,0,0.73c2.683-0.075,5.248-1.262,7.76-2.094c2.49-0.824,4.94-1.798,6.997-3.463
					C187.263-46.448,187.206-46.522,187.161-46.49L187.161-46.49z"/>
			</g>
		</g>
		<g>
			<g>
				<path fill="#B1877B" d="M184.649-36.696c-3.714-2.407-7.674-4.237-12.091-4.869c-0.512-0.073-0.607,0.639-0.095,0.698
					c4.23,0.494,8.491,2.072,12.157,4.222C184.653-36.627,184.681-36.676,184.649-36.696L184.649-36.696z"/>
			</g>
		</g>
		<g>
			<g>
				<path fill="#B1877B" d="M182.208-43.834c0.286,0.847,0.353,1.693,0.232,2.578c-0.064,0.47-1.05,3.055-1.528,1.801
					c-0.526-1.379,0.132-3.097,1.103-4.065c0.241-0.24-0.115-0.58-0.367-0.367c-0.877,0.737-1.23,1.717-1.366,2.824
					c-0.09,0.735-0.149,2.065,0.616,2.515c0.842,0.493,1.463-0.83,1.662-1.397c0.457-1.308,0.484-2.681,0.007-3.985
					C182.484-44.154,182.13-44.063,182.208-43.834L182.208-43.834z"/>
			</g>
		</g>
		<g>
			<g>
				<path fill="#B1877B" d="M177.313-42.295c-0.121-0.004-0.279,0.098-0.38,0.184c-0.175,0.15-0.313,0.334-0.446,0.521
					c-0.268,0.372-0.393,0.824-0.396,1.278c-0.003,0.357,0.563,0.299,0.491-0.066c-0.145-0.729,0.308-1.299,0.7-1.857
					c0.029-0.041-0.019-0.099-0.064-0.084c-0.024,0.01-0.049,0.017-0.074,0.021c-0.041,0.011-0.033,0.08,0.01,0.075
					c0.053-0.006,0.106-0.011,0.159-0.017C177.348-42.244,177.349-42.294,177.313-42.295L177.313-42.295z"/>
			</g>
		</g>
		<g>
			<g>
				<path fill="#B1877B" d="M181.91-36.481c0.461-0.604,0.392-1.272,0.013-1.902c-0.176-0.294-0.648-0.005-0.452,0.264
					c0.348,0.477,0.454,0.941,0.129,1.457C181.473-36.461,181.774-36.303,181.91-36.481L181.91-36.481z"/>
			</g>
		</g>
		<g>
			<g>
				<path fill="#B1877B" d="M183.412-35.685c-1.386-1.436-3.364-1.997-5.299-2.225c-0.295-0.034-0.347,0.44-0.069,0.511
					c1.804,0.453,3.684,0.682,5.167,1.915C183.35-35.367,183.542-35.551,183.412-35.685L183.412-35.685z"/>
			</g>
		</g>
		<g>
			<g>
				<path fill="#B1877B" d="M182.042-45.846c0.684-0.195,0.862,1.047,0.655,1.486c-0.15,0.319,0.332,0.596,0.473,0.275
					c0.338-0.769-0.089-2.564-1.23-2.135C181.711-46.133,181.799-45.775,182.042-45.846L182.042-45.846z"/>
			</g>
		</g>
		<g>
			<g>
				<path fill="#B1877B" d="M189.983-53.382c-0.44,1.041-1.313,1.622-2.364,1.947c-0.172,0.054-0.163,0.351,0.037,0.331
					c1.216-0.122,2.145-1.099,2.507-2.228C190.201-53.449,190.028-53.49,189.983-53.382L189.983-53.382z"/>
			</g>
		</g>
		<g>
			<g>
				<path fill="#B1877B" d="M189.011-53.43c-0.218,0.997-1.472,1.629-2.371,1.878c-0.253,0.07-0.227,0.48,0.052,0.47
					c1.093-0.043,2.537-1.141,2.518-2.318C189.208-53.512,189.036-53.547,189.011-53.43L189.011-53.43z"/>
			</g>
		</g>
		<g>
			<g>
				<path fill="#B1877B" d="M188.177-53.833c-0.656,0.819-1.49,1.437-2.375,1.989c-0.384,0.24-0.042,0.863,0.337,0.617
					c0.953-0.617,1.822-1.322,2.5-2.241C188.836-53.736,188.386-54.094,188.177-53.833L188.177-53.833z"/>
			</g>
		</g>
		<g>
			<g>
				<path fill="#B1877B" d="M186.7-53.849c-0.474,0.925-1.513,1.404-2.396,1.872c-0.333,0.177-0.059,0.66,0.276,0.508
					c0.626-0.285,1.197-0.634,1.719-1.084c0.313-0.27,0.848-0.85,0.551-1.293C186.816-53.896,186.732-53.912,186.7-53.849
					L186.7-53.849z"/>
			</g>
		</g>
		<g>
			<g>
				<path fill="#B1877B" d="M185.358-54.389c-0.659,1.217-1.63,2.141-2.888,2.719c-0.339,0.156-0.06,0.639,0.273,0.502
					c1.374-0.566,2.308-1.771,2.857-3.117C185.657-54.426,185.429-54.52,185.358-54.389L185.358-54.389z"/>
			</g>
		</g>
		<g>
			<g>
				<path fill="#B1877B" d="M183.707-54.051c-0.613,1.166-1.586,2.063-2.753,2.661c-0.295,0.151-0.11,0.658,0.212,0.55
					c1.32-0.445,2.501-1.727,2.918-3.05C184.155-54.111,183.817-54.26,183.707-54.051L183.707-54.051z"/>
			</g>
		</g>
		<g>
			<g>
				<path fill="#B1877B" d="M182.296-53.498c0.165,0.161-2.516,2.671-2.831,2.891c-0.297,0.207-0.064,0.664,0.272,0.5
					c0.849-0.413,1.553-1.287,2.136-2.002c0.146-0.18,1.189-1.412,0.53-1.57C182.303-53.704,182.215-53.577,182.296-53.498
					L182.296-53.498z"/>
			</g>
		</g>
		<g>
			<g>
				<path fill="#B1877B" d="M180.658-52.999c-0.327,1.176-1.536,1.956-2.499,2.614c-0.375,0.256-0.042,0.881,0.34,0.625
					c0.661-0.443,1.278-0.938,1.82-1.522c0.368-0.397,1.021-1.231,0.576-1.776C180.825-53.143,180.685-53.096,180.658-52.999
					L180.658-52.999z"/>
			</g>
		</g>
		<g>
			<g>
				<path fill="#B1877B" d="M178.929-52.072c-0.597,1.301-1.617,2.276-2.786,3.072c-0.341,0.231-0.074,0.708,0.303,0.555
					c1.398-0.566,2.551-1.984,2.947-3.43C179.466-52.145,179.052-52.341,178.929-52.072L178.929-52.072z"/>
			</g>
		</g>
		<g>
			<g>
				<path fill="#B1877B" d="M177.149-50.795c-0.499,1.146-1.681,1.797-2.526,2.657c-0.338,0.343,0.154,0.843,0.516,0.533
					c0.917-0.785,2.351-1.744,2.439-3.069C177.593-50.893,177.243-51.01,177.149-50.795L177.149-50.795z"/>
			</g>
		</g>
		<g>
			<g>
				<path fill="#B1877B" d="M175.022-49.311c-0.666,0.72-1.329,1.404-2.138,1.966c-0.397,0.275-0.078,0.91,0.366,0.672
					c0.951-0.509,1.701-1.34,2.258-2.254C175.69-49.225,175.265-49.573,175.022-49.311L175.022-49.311z"/>
			</g>
		</g>
		<g>
			<g>
				<path fill="#B1877B" d="M173.343-48.076c-0.709,0.52-1.429,1.086-1.98,1.774c-0.198,0.248,0.052,0.722,0.367,0.499
					c0.75-0.528,1.381-1.229,1.88-1.997C173.711-47.956,173.505-48.195,173.343-48.076L173.343-48.076z"/>
			</g>
		</g>
		<g>
			<g>
				<path fill="#B1877B" d="M171.565-46.628c-0.464,0.339-0.983,0.595-1.475,0.89c-0.337,0.202-0.059,0.713,0.292,0.535
					c0.567-0.287,1.04-0.671,1.408-1.191C171.883-46.525,171.7-46.727,171.565-46.628L171.565-46.628z"/>
			</g>
		</g>
	</g>
	<g clip-path="url(#SVGID_6_)">
		<linearGradient id="SVGID_7_" gradientUnits="userSpaceOnUse" x1="183.3516" y1="237.8408" x2="178.9012" y2="243.2961">
			<stop  offset="0" style="stop-color:#F9ECE6"/>
			<stop  offset="1" style="stop-color:#E8B29E"/>
		</linearGradient>
		<path fill="url(#SVGID_7_)" d="M181.734,247.081c1.246-1.081,2.673-2.419,3.829-3.888c1.736-2.205,1.356-5.397-0.847-7.137
			c-2.206-1.736-5.396-1.355-7.137,0.848c-0.762,0.965-1.519,2.035-2.189,2.626"/>
	</g>
	<g clip-path="url(#SVGID_6_)">
		<g>
			<path fill="#1D1D1B" d="M141.845,234.904c0.954-0.02,1.781-0.445,2.568-0.952c0.434-0.28,0.81-0.546,1.185-0.902
				c0.278-0.265,0.468-0.901,0.642-1.243c0.112-0.223-0.186-0.395-0.33-0.195c-0.507,0.705-0.638,1.406-1.415,1.936
				c-0.864,0.588-1.554,1.206-2.649,1.311C141.816,234.86,141.814,234.905,141.845,234.904L141.845,234.904z"/>
		</g>
	</g>
	<g clip-path="url(#SVGID_6_)">
		<g>
			<path fill="#1D1D1B" d="M145.064,237.146c0.034-0.755,0.089-1.508,0.128-2.263c0.036-0.692,0.403-1.272,0.625-1.911
				c0.075-0.216-0.269-0.365-0.371-0.158c-0.235,0.478-0.512,1.009-0.573,1.544c-0.104,0.911,0.056,1.872,0.097,2.786
				C144.974,237.205,145.062,237.207,145.064,237.146L145.064,237.146z"/>
		</g>
	</g>
	<g clip-path="url(#SVGID_6_)">
		<g>
			<path fill="#1D1D1B" d="M172.533,245.832c-0.502-0.153-0.72-1.14-0.828-1.559c-0.241-0.939-0.007-1.875-0.164-2.804
				c-0.035-0.207-0.358-0.258-0.451-0.066c-0.5,1.027-0.193,2.423,0.276,3.418c0.188,0.399,0.63,1.111,1.154,1.095
				C172.569,245.914,172.58,245.846,172.533,245.832L172.533,245.832z"/>
		</g>
	</g>
</g>
<g opacity="0.92">
	<path fill="#BB93C3" stroke="#BB93C3" stroke-width="0.75" d="M101.235,121.051c13.851-0.038,22.761,1.599,33.083,2.494
		c4.666,0.404,25.065,2.033,28.904,2.104c5.293,0.097,15.239-0.246,17.318-0.165c2.078,0.082,14.082-0.678,8.25,11.527
		c-4.824,10.09-5.745,9.761-9.108,13.162c-3.358,3.4-11.584,8.331-17.545,10.504c-7.854,2.868-11.036,1.479-11.465,1.113
		c-0.436-0.367,0.407,2.925-3.982,6.074c-6.572,4.723-14.61,7.925-21.521,10.063c-5.428,1.673-21.525,8.973-24.047,11.536
		c-3.098,3.144-6.033,5.54-7.018,6.413c-7.34,6.48-14.084,6.32-15.83,0.274c-1.766-6.098-1.4-8.217-3.31-16.57
		C71.262,163.418,59.59,121.165,101.235,121.051z"/>
</g>
<g>
	<path fill="none" d="M101.235,121.051c13.851-0.038,22.761,1.599,33.083,2.494c4.666,0.404,25.065,2.033,28.904,2.104
		c5.293,0.097,15.239-0.246,17.318-0.165c2.078,0.082,14.082-0.678,8.25,11.527c-4.824,10.09-5.745,9.761-9.108,13.162
		c-3.358,3.4-11.584,8.331-17.545,10.504c-7.854,2.868-11.036,1.479-11.465,1.113c-0.436-0.367,0.407,2.925-3.982,6.074
		c-6.572,4.723-14.61,7.925-21.521,10.063c-5.428,1.673-21.525,8.973-24.047,11.536c-3.098,3.144-6.033,5.54-7.018,6.413
		c-7.34,6.48-14.084,6.32-15.83,0.274c-1.766-6.098-1.4-8.217-3.31-16.57C71.262,163.418,59.59,121.165,101.235,121.051z"/>
</g>
<g>
	<g>
		<path fill="#0072BC" d="M145.804,85.471c4.811-0.031,0.989-9.868-4.169-9.751c-0.268,0.433-0.184,0.784-0.101,1.133
			c-3.674,0.134-3.644,4.943-3.409,7.479c0.547,5.427,3.203,2.573,6.408,5.146c1.67-0.769,2.472-2.068,1.621-4.089"/>
		<g>
			<path fill="#0072BC" d="M145.795,85.971c2.836-0.195,3.023-2.876,2.312-5.117c-0.896-2.824-3.369-5.533-6.463-5.645
				c-0.233-0.009-0.434,0.155-0.501,0.373c-0.217,0.703-0.213,0.689-0.108,1.393c0.169-0.213,0.339-0.424,0.509-0.637
				c-3.815,0.398-4.191,4.436-3.98,7.566c0.106,1.566,0.374,3.191,1.688,4.178c1.407,1.057,3.487,0.722,5.016,1.846
				c0.144,0.105,0.367,0.088,0.516,0.009c1.984-1.047,2.606-2.536,1.933-4.685c-0.225-0.717-1.372-0.42-1.124,0.273
				c0.297,0.829,0.008,4.073-1.296,3.143c-0.465-0.332-1.027-0.524-1.562-0.709c-1.248-0.432-2.741-0.15-3.545-1.419
				c-1.507-2.375-1.029-8.802,2.336-9.173c0.346-0.038,0.564-0.279,0.509-0.637c-0.182-1.167,1.849,0.141,2.297,0.442
				c0.99,0.666,1.71,1.728,2.284,2.747c0.826,1.466,1.825,4.87-0.803,5.051C145.174,85.015,145.151,86.015,145.795,85.971
				L145.795,85.971z"/>
		</g>
	</g>
	<g>
		<g>
			<path fill="#0072BC" d="M146.271,82.769c0.81,1.845,1.394,4.3-1.104,4.708"/>
			<g>
				<path fill="#0072BC" d="M146.039,82.825c0.483,1.54,1.144,3.779-0.974,4.233c-0.546,0.117-0.337,0.938,0.203,0.836
					c2.796-0.525,2.25-3.369,1.211-5.24C146.352,82.423,145.957,82.562,146.039,82.825L146.039,82.825z"/>
			</g>
		</g>
		<g>
			<path fill="#0072BC" d="M144.291,87.685c-0.727,2.396-4.393,1.784-4.623-0.755"/>
			<g>
				<path fill="#0072BC" d="M144.143,87.598c-0.54,0.952-1.418,1.419-2.498,1.141c-0.448-0.115-0.819-0.38-1.125-0.719
					c-0.348-0.385-0.317-0.914-0.636-1.299c-0.117-0.142-0.396-0.115-0.475,0.056c-0.577,1.25,1.153,2.514,2.199,2.728
					c1.292,0.264,2.64-0.436,2.849-1.773C144.484,87.551,144.246,87.415,144.143,87.598L144.143,87.598z"/>
			</g>
		</g>
		<g>
			<path fill="#0072BC" d="M139.7,83.959c-0.585,1.436-4.238-3.809-0.122-4.416"/>
			<g>
				<path fill="#0072BC" d="M139.636,83.921c-0.385,0.61-1.369-1.419-1.459-1.687c-0.445-1.321,0.251-2.01,1.52-2.205
					c0.634-0.098,0.398-1.094-0.236-0.973c-1.92,0.368-2.584,1.989-1.891,3.705c0.203,0.502,1.74,2.537,2.202,1.217
					C139.8,83.897,139.68,83.852,139.636,83.921L139.636,83.921z"/>
			</g>
		</g>
		<g>
			<path fill="#0072BC" d="M146.39,80.146c2.071-1.419-1.767-5.879-2.577-3.834"/>
			<g>
				<path fill="#0072BC" d="M146.532,80.407c1.568-0.708,0.782-2.788-0.004-3.811c-0.704-0.915-2.434-2.144-3.179-0.559
					c-0.332,0.706,0.68,1.142,0.983,0.42c0.264-0.626,1.43,0.699,1.593,0.921c0.538,0.733,0.935,1.772,0.259,2.554
					C145.963,80.188,146.219,80.549,146.532,80.407L146.532,80.407z"/>
			</g>
		</g>
	</g>
</g>
<g>
	<g>
		<path fill="#0072BC" d="M104.696,142.219c-1.906,5.736,9.751,5.328,11.707-0.853c-0.338-0.499-0.734-0.55-1.125-0.597
			c1.34-4.424-3.617-6.41-6.322-7.197c-5.8-1.633-3.932,2.725-7.868,5.455c0.115,2.307,1.13,3.808,3.55,3.646"/>
		<g>
			<path fill="#0072BC" d="M104.215,142.084c-0.879,3.123,1.623,4.624,4.444,4.689c3.476,0.082,7.026-1.965,8.237-5.27
				c0.057-0.154,0-0.385-0.125-0.492c-0.637-0.552-0.569-0.562-1.354-0.737c0.119,0.212,0.237,0.423,0.356,0.634
				c0.716-2.951-0.748-5.009-3.245-6.475c-2.006-1.177-5.229-2.437-7.459-1.296c-0.877,0.449-1.355,1.554-1.774,2.376
				c-0.356,0.699-0.747,1.344-1.242,1.957c-0.363,0.45-1.316,0.874-1.468,1.415c-0.711,2.539,1.931,4.341,4.042,4.366
				c0.748,0.009,0.765-1.173,0.021-1.156c-1.544,0.035-2.446-0.524-2.891-2.021c-0.283-0.953,0.906-1.741,1.42-2.394
				c0.88-1.119,1.197-2.785,2.381-3.645c1.476-1.07,4.5,0.394,5.937,1.061c2.289,1.063,3.917,2.878,3.287,5.533
				c-0.062,0.26,0.074,0.572,0.356,0.634c1.658,0.362-1.507,2.955-1.897,3.21c-1.012,0.66-2.194,1.001-3.371,1.209
				c-2.314,0.409-5.531-0.354-4.693-3.33C105.353,141.734,104.39,141.461,104.215,142.084L104.215,142.084z"/>
		</g>
	</g>
	<g>
		<g>
			<path fill="#0072BC" d="M107.286,143.913c-2.223,0.185-4.982-0.152-4.396-3.292"/>
			<g>
				<path fill="#0072BC" d="M107.29,143.675c-0.871-0.011-1.839-0.104-2.668-0.372c-1.2-0.389-1.49-1.404-1.319-2.565
					c0.079-0.535-0.73-0.784-0.827-0.232c-0.229,1.31,0.013,2.553,1.197,3.294c1.103,0.69,2.466,0.544,3.669,0.346
					C107.614,144.1,107.555,143.678,107.29,143.675L107.29,143.675z"/>
			</g>
		</g>
		<g>
			<path fill="#0072BC" d="M103.028,139.49c-2.171-1.871-0.067-5.971,2.638-5.178"/>
			<g>
				<path fill="#0072BC" d="M103.151,139.371c-0.826-1.054-0.86-2.324-0.201-3.465c0.289-0.501,0.719-0.873,1.232-1.127
					c0.513-0.254,1.035-0.041,1.555-0.175c0.208-0.053,0.32-0.345,0.145-0.501c-1.164-1.042-2.976,0.408-3.587,1.415
					c-0.816,1.345-0.685,3.204,0.645,4.12C103.112,139.756,103.263,139.513,103.151,139.371L103.151,139.371z"/>
			</g>
		</g>
		<g>
			<path fill="#0072BC" d="M108.708,135.601c-1.241-1.298,5.625-3.437,4.591,1.714"/>
			<g>
				<path fill="#0072BC" d="M108.773,135.565c-0.553-0.783,1.801-1.138,2.207-1.149c1.74-0.047,2.127,1.283,1.837,2.764
					c-0.124,0.631,0.855,0.902,0.963,0.27c0.354-2.079-0.651-3.891-2.908-3.785c-0.681,0.032-3.361,0.895-2.217,1.988
					C108.712,135.707,108.823,135.637,108.773,135.565L108.773,135.565z"/>
			</g>
		</g>
		<g>
			<path fill="#0072BC" d="M109.935,145.154c0.625,3.063,6.757,0.373,4.979-1.448"/>
			<g>
				<path fill="#0072BC" d="M109.638,145.149c0.219,3.925,8.03,0.95,5.664-1.817c-0.45-0.527-1.247,0.234-0.775,0.748
					c0.851,0.928-3.247,3.303-4.331,0.932C110.074,144.745,109.622,144.855,109.638,145.149L109.638,145.149z"/>
			</g>
		</g>
	</g>
</g>
<text transform="matrix(1 0 0 1 265.5605 123.8926)"><tspan x="0" y="0" fill="#333333" font-family="Liberation Sans, Helvetica, Arial, sans-serif" font-size="14.6615">The cancer</tspan><tspan x="0" y="17.594" fill="#333333" font-family="Liberation Sans, Helvetica, Arial, sans-serif" font-size="14.6615">has spread</tspan><tspan x="0" y="35.188" fill="#333333" font-family="Liberation Sans, Helvetica, Arial, sans-serif" font-size="14.6615">to the liver</tspan></text>
<text transform="matrix(1 0 0 1 267.8115 89.5801)" fill="#333333" font-family="Liberation Sans, Helvetica, Arial, sans-serif" font-size="14.6615">Cancer</text>
<text transform="matrix(1 0 0 1 265.7314 60.4629)" fill="#333333" font-family="Liberation Sans, Helvetica, Arial, sans-serif" font-size="14.6615">Oesophagus</text>
<line fill="none" stroke="#333333" x1="260" y1="54" x2="142" y2="54"/>
<line fill="none" stroke="#333333" x1="146" y1="83" x2="261" y2="83"/>
<line fill="none" stroke="#333333" x1="109" y1="139" x2="261" y2="139"/>
</svg>
